<?xml version="1.0" standalone="no"?>
<!DOCTYPE svg PUBLIC "-//W3C//DTD SVG 20010904//EN"
 "http://www.w3.org/TR/2001/REC-SVG-20010904/DTD/svg10.dtd">
<svg version="1.0" xmlns="http://www.w3.org/2000/svg"
 width="500.000000pt" height="500.000000pt" viewBox="0 0 500.000000 500.000000"
 preserveAspectRatio="xMidYMid meet">
<metadata>
Created by potrace 1.11, written by Peter Selinger 2001-2013
</metadata>
<g transform="translate(0.000000,500.000000) scale(0.100000,-0.100000)"
fill="#000000" stroke="none">
<path d="M0 2500 l0 -2500 2500 0 2500 0 0 2500 0 2500 -2500 0 -2500 0 0
-2500z m1411 445 c133 -52 244 -95 246 -95 1 0 3 -103 3 -228 0 -255 -9 -310
-63 -400 -64 -106 -197 -210 -354 -276 -77 -32 -86 -32 -170 -1 -174 66 -324
188 -385 313 l-33 67 -3 261 -3 260 243 96 c134 53 250 97 259 97 9 1 126 -42
260 -94z m909 -70 c0 -12 -19 -15 -110 -15 l-110 0 0 -30 0 -30 95 0 c77 0 95
-3 95 -15 0 -11 -19 -15 -92 -17 l-93 -3 -3 -47 c-2 -34 -7 -48 -18 -48 -11 0
-14 21 -14 110 l0 110 125 0 c104 0 125 -2 125 -15z m302 -2 c21 -24 23 -203
3 -203 -9 0 -15 14 -17 38 l-3 37 -97 3 -98 3 0 -41 c0 -29 -4 -40 -15 -40
-12 0 -15 19 -15 110 l0 110 113 0 c96 0 116 -3 129 -17z m294 -96 c61 -88 70
-107 54 -107 -11 0 -27 11 -36 25 -15 24 -21 25 -104 25 -83 0 -89 -1 -104
-25 -14 -22 -46 -35 -46 -20 0 16 143 216 152 213 6 -2 44 -52 84 -111z m236
33 c54 -44 100 -80 103 -80 3 0 5 36 5 80 0 64 3 80 15 80 12 0 15 -19 15
-110 0 -60 -3 -110 -8 -110 -4 0 -54 39 -112 86 l-105 86 -3 -86 c-2 -67 -6
-86 -17 -86 -12 0 -15 20 -15 110 0 77 3 110 12 110 6 0 56 -36 110 -80z m438
60 c11 -11 20 -24 20 -30 0 -15 -26 -12 -40 5 -16 19 -160 21 -178 3 -7 -7
-12 -36 -12 -64 0 -73 13 -84 106 -84 63 0 76 3 86 20 14 22 38 27 38 8 -1
-40 -43 -58 -135 -58 -67 0 -79 3 -100 25 -21 20 -25 34 -25 86 0 51 4 67 22
86 19 21 30 23 110 23 75 0 91 -3 108 -20z m319 -6 c16 -20 21 -41 21 -86 0
-50 -4 -63 -26 -84 -24 -25 -30 -26 -115 -22 -112 4 -119 11 -119 114 0 95 11
104 131 104 83 0 89 -1 108 -26z m-29 -245 c-10 -17 -30 -27 -30 -13 0 15 22
44 31 39 5 -4 5 -13 -1 -26z m-1080 -76 c24 -31 10 -45 -19 -19 -15 13 -36 16
-102 14 l-84 -3 -3 -63 c-2 -38 2 -69 9 -78 17 -21 152 -19 174 2 25 25 13 39
-38 42 -33 2 -47 7 -47 18 0 18 100 20 118 2 19 -19 14 -57 -13 -83 -21 -22
-33 -25 -100 -25 -73 0 -112 10 -127 34 -4 6 -8 43 -8 83 0 94 11 103 131 103
83 0 89 -1 109 -27z m288 -77 c40 -58 72 -107 72 -110 0 -16 -32 -3 -46 19
-15 24 -21 25 -104 25 -84 0 -89 -1 -107 -26 -11 -14 -27 -25 -35 -23 -13 3 1
29 58 112 41 59 78 107 82 107 5 0 41 -47 80 -104z m366 89 c21 -21 22 -205 0
-205 -10 0 -14 12 -14 40 l0 40 -100 0 -100 0 0 -40 c0 -29 -4 -40 -15 -40
-12 0 -15 19 -15 110 l0 110 114 0 c88 0 118 -3 130 -15z m308 -2 c10 -9 18
-22 18 -30 0 -18 -26 -17 -34 2 -4 12 -24 15 -90 15 -98 0 -106 -6 -106 -84 0
-65 16 -76 106 -76 63 0 76 3 86 20 14 23 38 27 38 7 0 -7 -6 -22 -14 -33 -13
-16 -27 -19 -110 -19 -118 0 -128 7 -134 97 -3 53 -1 67 18 91 21 26 25 27
112 27 71 0 96 -4 110 -17z m108 -93 c0 -91 -3 -110 -15 -110 -12 0 -15 19
-15 110 0 91 3 110 15 110 12 0 15 -19 15 -110z m288 0 c58 -89 68 -110 53
-110 -10 0 -26 11 -35 25 -16 24 -22 25 -105 25 -83 0 -88 -1 -101 -25 -7 -14
-22 -25 -33 -25 -19 0 -19 1 -1 28 88 136 129 192 138 192 6 0 44 -50 84 -110z
m-911 -322 c27 5 43 -10 43 -44 0 -35 -24 -58 -53 -50 -26 6 -27 8 -25 79 0
39 3 58 5 41 4 -27 7 -30 30 -26z m-153 34 c2 -4 -7 -8 -22 -7 -18 0 -31 -8
-41 -27 -15 -25 -15 -31 0 -55 10 -20 23 -28 41 -28 15 1 24 -3 22 -7 -3 -4
-16 -8 -29 -8 -50 0 -73 82 -35 120 20 20 55 27 64 12z m1044 -33 c15 -1 15
-2 0 -6 -21 -5 -26 -79 -5 -86 7 -2 6 -3 -3 -3 -10 1 -16 14 -18 41 -2 22 -9
43 -15 47 -9 6 -9 8 1 8 6 0 13 8 13 18 1 16 2 16 6 0 2 -10 12 -19 21 -19z
m-981 -76 c-2 -16 -4 -3 -4 27 0 30 2 43 4 28 2 -16 2 -40 0 -55z m241 50 c3
-20 -1 -23 -28 -23 -24 0 -31 -4 -28 -17 2 -9 14 -20 28 -24 19 -5 20 -7 6 -8
-23 -1 -56 26 -56 46 0 8 5 23 11 34 15 29 63 22 67 -8z m73 11 c-12 -9 -21
-29 -24 -52 -3 -32 -4 -30 -5 13 -2 47 -1 50 24 51 25 2 25 2 5 -12z m72 9
c-20 -8 -15 -22 12 -35 18 -8 25 -18 23 -32 -3 -23 -34 -34 -50 -18 -6 6 0 8
16 5 35 -7 36 24 1 37 -33 12 -33 52 -1 49 6 0 5 -3 -1 -6z m145 -20 c3 -20
-1 -23 -28 -23 -24 0 -31 -4 -28 -17 2 -9 14 -20 28 -24 19 -5 20 -7 6 -8 -23
-1 -56 26 -56 46 0 8 5 23 11 34 15 29 63 22 67 -8z m90 20 c-19 -3 -30 -12
-34 -29 -8 -30 13 -57 38 -51 10 3 16 1 12 -4 -8 -13 -38 -11 -52 3 -7 7 -12
24 -12 38 0 33 17 50 50 49 25 -2 25 -2 -2 -6z m97 -78 c16 0 21 8 23 43 4 58
22 53 22 -6 l0 -48 -37 1 -38 0 -1 50 -2 50 7 -45 c5 -36 10 -45 26 -45z m116
69 c-12 -9 -21 -29 -24 -52 -3 -32 -4 -30 -5 13 -2 47 -1 50 24 51 25 2 25 2
5 -12z m56 -61 c-2 -16 -4 -3 -4 27 0 30 2 43 4 28 2 -16 2 -40 0 -55z m153
29 l17 -37 16 45 c11 28 15 34 11 15 -11 -57 -42 -115 -61 -114 -16 1 -16 2
-1 6 27 7 29 30 7 86 -23 58 -15 58 11 -1z"/>
<path d="M2410 2820 l0 -40 89 0 c96 0 115 9 109 52 -3 22 -7 23 -100 26 l-98
3 0 -41z"/>
<path d="M2796 2800 c-14 -22 -26 -42 -26 -45 0 -3 27 -5 60 -5 33 0 60 2 60
5 0 10 -53 85 -60 85 -4 0 -19 -18 -34 -40z"/>
<path d="M3707 2853 c-12 -11 -8 -128 5 -141 19 -19 153 -16 172 4 19 19 22
114 4 132 -13 13 -169 17 -181 5z"/>
<path d="M2975 2480 c-15 -22 -26 -43 -23 -46 3 -3 31 -4 62 -2 l55 3 -27 42
c-15 24 -30 43 -33 43 -4 0 -19 -18 -34 -40z"/>
<path d="M3240 2500 l0 -40 88 0 c48 0 93 4 100 9 8 5 12 21 10 37 l-3 29 -97
3 -98 3 0 -41z"/>
<path d="M4038 2477 l-27 -42 55 -3 c31 -2 59 -1 62 2 6 7 -45 86 -56 86 -4 0
-19 -19 -34 -43z"/>
<path d="M3224 2116 c-10 -25 0 -61 18 -64 21 -4 41 32 33 58 -7 23 -43 27
-51 6z"/>
<path d="M3347 2123 c-14 -13 -6 -23 18 -23 16 0 25 6 25 15 0 15 -31 21 -43
8z"/>
<path d="M3637 2123 c-14 -13 -6 -23 18 -23 16 0 25 6 25 15 0 15 -31 21 -43
8z"/>
</g>
</svg>
